<svg width="62" height="29" viewBox="0 0 62 29" fill="none" xmlns="http://www.w3.org/2000/svg">
<g clip-path="url(#clip0)">
<path d="M11.2777 12.9297H8.49085L5.92844 21.2241H5.81262L3.25743 12.9297H0.463379L4.42282 24.0955H7.31822L11.2777 12.9297Z" fill="#136A66"/>
<path d="M15.3744 24.321C17.1188 24.321 18.1612 23.4996 18.6389 22.5618H18.7258V24.0956H21.2448V16.6227C21.2448 13.6713 18.8488 12.7844 16.728 12.7844C14.3899 12.7844 12.5948 13.8312 12.0157 15.8667L14.4623 16.2156C14.7229 15.4523 15.4612 14.798 16.7425 14.798C17.9585 14.798 18.6244 15.4232 18.6244 16.5209V16.5645C18.6244 17.3205 17.8355 17.3569 15.8738 17.5677C13.7168 17.8003 11.6538 18.4473 11.6538 20.9625C11.6538 23.1578 13.2535 24.321 15.3744 24.321ZM16.0548 22.3874C14.9618 22.3874 14.18 21.8856 14.18 20.9189C14.18 19.9084 15.0559 19.4868 16.2285 19.3196C16.9162 19.2251 18.2915 19.0506 18.6317 18.7744V20.0902C18.6317 21.3331 17.6328 22.3874 16.0548 22.3874Z" fill="#136A66"/>
<path d="M45.337 24.3137C47.9282 24.3137 49.709 23.0416 50.1721 21.1006L47.7257 20.8244C47.3709 21.7694 46.5022 22.2637 45.3731 22.2637C43.6793 22.2637 42.5574 21.1442 42.5357 19.2324H50.2808V18.4255C50.2808 14.5073 47.9354 12.7844 45.1994 12.7844C42.0144 12.7844 39.937 15.1324 39.937 18.5781C39.937 22.082 41.9856 24.3137 45.337 24.3137ZM42.5429 17.4586C42.6225 16.0339 43.6721 14.8344 45.2355 14.8344C46.7411 14.8344 47.7545 15.9393 47.769 17.4586H42.5429Z" fill="#136A66"/>
<path d="M53.0844 28.2825C55.1257 28.2825 56.3056 27.2285 56.9354 25.4476L61.4015 12.9442L58.6003 12.9297L56.0304 21.3622H55.9147L53.3523 12.9297H50.5728L54.6045 24.3281L54.3802 24.9313C53.8953 26.2035 53.1279 26.2907 51.9843 25.9564L51.3762 28.0064C51.7308 28.1518 52.3678 28.2825 53.0844 28.2825Z" fill="#136A66"/>
<path fill-rule="evenodd" clip-rule="evenodd" d="M30.7963 6.94463C30.1396 8.49858 29.6219 10.1227 29.4073 11.594C29.1629 13.2711 29.3468 14.5127 29.8905 15.2624C30.0532 15.4867 30.2721 15.6983 30.5715 15.8726C31.2392 15.5536 31.6412 15.1061 31.8888 14.6134C32.3468 13.7012 32.4039 12.3847 32.0754 10.7739C31.8208 9.52627 31.3571 8.20717 30.7963 6.94463ZM29.5701 4.5175C28.5199 6.65422 27.6275 9.08246 27.3065 11.285C27.0447 13.081 27.13 14.9483 28.0662 16.3621C26.4516 16.386 25.6435 15.887 25.2195 15.3023C24.6757 14.5525 24.4916 13.311 24.7362 11.6338C25.1713 8.65006 26.8534 5.03783 28.4121 2.65691C28.7894 3.20644 29.1837 3.83602 29.5701 4.5175ZM30.7481 2.34405C30.3383 1.69056 29.9343 1.10602 29.5604 0.616261C28.9614 -0.168077 27.7919 -0.145481 27.2171 0.644561C25.3966 3.14693 23.1837 7.56474 22.6352 11.3249C22.3637 13.1876 22.4656 15.127 23.503 16.5576C24.5989 18.0688 26.4867 18.6916 29.0264 18.4397C29.5633 18.3864 30.0608 18.2927 30.5188 18.1603C31.4193 18.4408 32.4839 18.5202 33.6976 18.3998C36.0432 18.1672 37.638 17.1618 38.4557 15.5339C39.2298 13.9921 39.1935 12.1053 38.8266 10.3063C38.0894 6.69196 35.8708 2.72338 34.2314 0.576396C33.6324 -0.207941 32.4631 -0.185345 31.8883 0.604697C31.5187 1.11272 31.1329 1.69968 30.7481 2.34405ZM31.9731 4.49135C32.9175 6.31499 33.7551 8.38281 34.1554 10.3461C34.5223 12.1452 34.5588 14.032 33.7844 15.5737C33.6566 15.8283 33.5099 16.0676 33.3441 16.2911C33.3918 16.2871 33.44 16.2826 33.4889 16.2778C35.2956 16.0986 36.1451 15.3995 36.5598 14.5736C37.018 13.6614 37.0749 12.3448 36.7464 10.7341C36.1676 7.89583 34.5051 4.68813 33.0831 2.61704C32.7139 3.18098 32.3378 3.81399 31.9731 4.49135ZM31.9552 23.9491V19.3645H34.0785V23.9491H31.9552ZM27.2842 23.989V19.4044H29.4075V23.989H27.2842Z" fill="#136A66"/>
</g>
<defs>
<clipPath id="clip0">
<rect width="62" height="29" fill="white"/>
</clipPath>
</defs>
</svg>
